<svg width="501" height="126" viewBox="0 0 501 126" fill="none" xmlns="http://www.w3.org/2000/svg">
<circle cx="62.9056" cy="62.9056" r="62.9056" fill="#2A8CFF"/>
<path fill-rule="evenodd" clip-rule="evenodd" d="M83.4239 30.174C78.3276 27.6333 72.3601 27.5138 67.1662 29.8485L35.9046 43.9007C33.8133 44.8408 32.468 46.9204 32.468 49.2133V52.9193C32.468 55.1279 33.7173 57.1466 35.6939 58.132L60.9645 70.7304C62.6009 71.5462 64.5255 71.5462 66.162 70.7304L91.6539 58.0216C96.1309 55.7897 101.392 59.0457 101.392 64.0482V68.7957C101.392 71.3492 99.9481 73.683 97.6629 74.8223L66.5677 90.3245C64.6758 91.2677 62.4507 91.2677 60.5587 90.3245L36.3344 78.2477C34.557 77.3616 32.468 78.6543 32.468 80.6404C32.468 81.6542 33.0414 82.5807 33.9487 83.033L60.9957 96.517C62.621 97.3273 64.5312 97.3331 66.1614 96.5327L87.3875 86.1115C89.0567 85.292 91.0742 85.9808 91.8938 87.65C92.7133 89.3192 92.0245 91.3367 90.3553 92.1563L66.5424 103.847C64.6577 104.773 62.4492 104.766 60.5702 103.829L29.4636 88.3214C27.1783 87.1822 25.7341 84.8483 25.7341 82.2949V76.3202C25.7341 71.3177 30.9956 68.0616 35.4725 70.2936L60.9645 83.0023C62.6009 83.8181 64.5255 83.8181 66.162 83.0023L93.4818 69.3823C94.2028 69.0229 94.6584 68.2866 94.6584 67.4811C94.6584 65.9029 92.9985 64.8757 91.5862 65.5798L66.5677 78.0525C64.6758 78.9957 62.4507 78.9957 60.5587 78.0525L29.4636 62.5504C27.1783 61.4111 25.7341 59.0773 25.7341 56.5238V45.4455C25.7341 42.7946 27.2893 40.3903 29.7072 39.3035L64.4053 23.7065C71.4411 20.5439 79.5248 20.7057 86.4284 24.1474C99.0223 30.4259 98.7597 48.4848 85.9886 54.3946L66.46 63.4313C64.5874 64.2979 62.4208 64.2581 60.5813 63.3233L42.1144 53.9391C40.4567 53.0967 39.7957 51.0699 40.6381 49.4121C41.4805 47.7543 43.5073 47.0934 45.1651 47.9358L61.1123 56.0395C62.7034 56.8481 64.5773 56.8825 66.1971 56.133L83.1606 48.2832C90.8068 44.745 90.964 33.933 83.4239 30.174Z" fill="white"/>
<path d="M176.268 74.456C176.268 73.4612 176.054 72.5984 175.628 71.8676C175.202 71.1165 174.4 70.4161 173.222 69.7665C172.045 69.0965 170.299 68.386 167.985 67.6349C165.346 66.762 162.879 65.7368 160.585 64.5593C158.311 63.3819 156.474 61.91 155.073 60.1439C153.693 58.3777 153.003 56.1954 153.003 53.5968C153.003 51.0998 153.723 48.9277 155.165 47.0803C156.606 45.2126 158.586 43.7712 161.103 42.7562C163.64 41.7208 166.523 41.2032 169.751 41.2032C172.999 41.2032 175.851 41.7817 178.308 42.9389C180.784 44.0757 182.713 45.6795 184.094 47.7502C185.474 49.8006 186.164 52.1859 186.164 54.9063H176.298C176.298 53.7085 176.044 52.6529 175.537 51.7393C175.05 50.8055 174.298 50.0746 173.283 49.5468C172.289 49.019 171.04 48.7551 169.538 48.7551C168.076 48.7551 166.848 48.9784 165.853 49.425C164.879 49.8513 164.138 50.4401 163.63 51.1912C163.143 51.9423 162.899 52.7645 162.899 53.6578C162.899 54.5916 163.224 55.4239 163.874 56.1548C164.544 56.8856 165.508 57.5555 166.767 58.1645C168.046 58.7533 169.589 59.3318 171.395 59.9003C174.562 60.895 177.242 62.0522 179.434 63.3717C181.627 64.671 183.292 66.224 184.428 68.0308C185.586 69.8172 186.164 71.9387 186.164 74.3951C186.164 77.0139 185.494 79.247 184.154 81.0944C182.815 82.9417 180.927 84.3526 178.49 85.3271C176.075 86.2812 173.222 86.7583 169.934 86.7583C167.701 86.7583 165.498 86.4741 163.326 85.9057C161.154 85.3169 159.184 84.4237 157.418 83.2259C155.672 82.0282 154.272 80.5056 153.216 78.6583C152.181 76.7906 151.663 74.5778 151.663 72.0199H161.59C161.59 73.3597 161.783 74.4966 162.169 75.4304C162.554 76.344 163.102 77.0849 163.813 77.6534C164.544 78.2218 165.427 78.6278 166.462 78.8714C167.498 79.115 168.655 79.2368 169.934 79.2368C171.416 79.2368 172.613 79.0338 173.527 78.6278C174.461 78.2015 175.151 77.6229 175.598 76.8921C176.044 76.1612 176.268 75.3492 176.268 74.456Z" fill="black"/>
<path d="M205.288 79.3586C206.303 79.3586 207.186 79.1658 207.937 78.7801C208.688 78.3943 209.267 77.8564 209.673 77.1661C210.099 76.4556 210.312 75.603 210.312 74.6082H219.265C219.265 77.0037 218.646 79.115 217.407 80.9421C216.189 82.7692 214.545 84.2004 212.474 85.2357C210.403 86.2508 208.069 86.7583 205.47 86.7583C202.06 86.7583 199.218 86.0275 196.944 84.5658C194.691 83.0838 192.995 81.0842 191.859 78.5669C190.722 76.0496 190.153 73.2176 190.153 70.071V69.2793C190.153 66.1326 190.712 63.3108 191.828 60.8138C192.965 58.2965 194.67 56.2969 196.944 54.8149C199.218 53.3329 202.05 52.592 205.44 52.592C208.14 52.592 210.525 53.1096 212.596 54.145C214.687 55.1803 216.321 56.6724 217.499 58.6213C218.676 60.5499 219.265 62.8743 219.265 65.5947H210.312C210.312 64.539 210.119 63.595 209.734 62.7627C209.368 61.91 208.8 61.2401 208.028 60.7529C207.277 60.2454 206.343 59.9916 205.227 59.9916C203.684 59.9916 202.506 60.4281 201.694 61.301C200.903 62.1537 200.365 63.2905 200.08 64.7116C199.817 66.1326 199.685 67.6552 199.685 69.2793V70.071C199.685 71.756 199.817 73.2988 200.08 74.6996C200.365 76.1003 200.903 77.227 201.694 78.0797C202.506 78.9323 203.704 79.3586 205.288 79.3586Z" fill="black"/>
<path d="M233.272 39.3761V86.1493H223.772V39.3761H233.272ZM232.024 68.518L229.649 68.5789C229.649 65.4931 230.156 62.7525 231.171 60.357C232.186 57.9412 233.607 56.0431 235.434 54.6626C237.282 53.2822 239.434 52.592 241.89 52.592C244.062 52.592 245.971 53.0183 247.615 53.8709C249.28 54.7032 250.569 56.0634 251.482 57.9514C252.396 59.8394 252.853 62.3567 252.853 65.5033V86.1493H243.291V65.4424C243.291 64.0416 243.088 62.9454 242.682 62.1537C242.296 61.3619 241.728 60.8037 240.977 60.4788C240.246 60.154 239.352 59.9916 238.297 59.9916C237.058 59.9916 236.033 60.2149 235.221 60.6615C234.409 61.0879 233.77 61.6867 233.303 62.4582C232.836 63.2296 232.501 64.133 232.298 65.1683C232.115 66.2037 232.024 67.3202 232.024 68.518Z" fill="black"/>
<path d="M257.694 70.0101V69.3706C257.694 66.1631 258.303 63.3007 259.521 60.7833C260.739 58.2457 262.516 56.2461 264.85 54.7844C267.185 53.3228 270.037 52.592 273.407 52.592C276.818 52.592 279.69 53.3228 282.025 54.7844C284.38 56.2461 286.166 58.2457 287.384 60.7833C288.602 63.3007 289.211 66.1631 289.211 69.3706V70.0101C289.211 73.2176 288.602 76.0902 287.384 78.6278C286.166 81.1451 284.39 83.1346 282.055 84.5963C279.721 86.0376 276.858 86.7583 273.468 86.7583C270.078 86.7583 267.205 86.0376 264.85 84.5963C262.516 83.1346 260.739 81.1451 259.521 78.6278C258.303 76.0902 257.694 73.2176 257.694 70.0101ZM267.226 69.3706V70.0101C267.226 71.7357 267.418 73.309 267.804 74.73C268.19 76.1511 268.839 77.2778 269.753 78.1101C270.667 78.9425 271.905 79.3586 273.468 79.3586C275.011 79.3586 276.229 78.9425 277.122 78.1101C278.036 77.2778 278.685 76.1511 279.071 74.73C279.477 73.309 279.68 71.7357 279.68 70.0101V69.3706C279.68 67.6653 279.477 66.1123 279.071 64.7116C278.685 63.2905 278.036 62.1537 277.122 61.301C276.229 60.4281 274.991 59.9916 273.407 59.9916C271.864 59.9916 270.636 60.4281 269.723 61.301C268.829 62.1537 268.19 63.2905 267.804 64.7116C267.418 66.1123 267.226 67.6653 267.226 69.3706Z" fill="black"/>
<path d="M304.224 39.3761V86.1493H294.693V39.3761H304.224Z" fill="black"/>
<path d="M328.524 78.2928V64.1634C328.524 62.7018 328.179 61.5345 327.489 60.6615C326.798 59.7683 325.672 59.3217 324.109 59.3217C323.236 59.3217 322.474 59.4739 321.825 59.7785C321.195 60.083 320.708 60.5194 320.363 61.0879C320.038 61.6563 319.876 62.3567 319.876 63.189H310.375C310.375 61.1995 310.954 59.413 312.111 57.8296C313.288 56.2258 314.943 54.957 317.074 54.0232C319.226 53.069 321.743 52.592 324.626 52.592C327.204 52.592 329.498 53.0284 331.508 53.9014C333.538 54.754 335.142 56.0431 336.319 57.7687C337.497 59.4739 338.086 61.6258 338.086 64.2243V78.0188C338.086 80.0083 338.197 81.5714 338.421 82.7083C338.664 83.8248 339.009 84.7993 339.456 85.6316V86.1493H329.864C329.417 85.1951 329.082 84.0177 328.859 82.6169C328.636 81.1959 328.524 79.7545 328.524 78.2928ZM329.712 66.0514L329.772 71.289H325.053C322.941 71.289 321.429 71.7763 320.515 72.7507C319.602 73.7251 319.145 74.9127 319.145 76.3135C319.145 77.3488 319.49 78.2015 320.18 78.8714C320.891 79.521 321.815 79.8459 322.951 79.8459C324.19 79.8459 325.245 79.6022 326.118 79.115C327.012 78.6278 327.702 78.0391 328.189 77.3488C328.676 76.6383 328.92 75.9785 328.92 75.3695L331.204 79.3282C330.838 80.1402 330.392 80.9827 329.864 81.8556C329.336 82.7083 328.666 83.5102 327.854 84.2613C327.042 84.9921 326.057 85.591 324.9 86.0579C323.763 86.5248 322.393 86.7583 320.789 86.7583C318.719 86.7583 316.841 86.3421 315.156 85.5098C313.471 84.6572 312.121 83.4899 311.106 82.0079C310.111 80.5259 309.614 78.8207 309.614 76.8921C309.614 73.4815 310.872 70.8221 313.39 68.9138C315.927 67.0056 319.784 66.0514 324.961 66.0514H329.712Z" fill="black"/>
<path d="M353.859 60.8747V86.1493H344.359V53.201H353.281L353.859 60.8747ZM363.695 52.9574L363.543 61.8187C363.137 61.7578 362.609 61.707 361.959 61.6664C361.31 61.6055 360.752 61.5751 360.285 61.5751C358.64 61.5751 357.3 61.8288 356.265 62.3364C355.25 62.8439 354.489 63.6052 353.981 64.6202C353.494 65.615 353.24 66.8533 353.22 68.3353L351.423 67.4522C351.423 64.5492 351.799 61.9811 352.55 59.748C353.301 57.5149 354.387 55.769 355.808 54.5104C357.229 53.2314 358.935 52.592 360.924 52.592C361.411 52.592 361.909 52.6224 362.416 52.6833C362.924 52.7442 363.35 52.8356 363.695 52.9574Z" fill="black"/>
<path d="M391.071 74.456C391.071 73.4612 390.858 72.5984 390.431 71.8676C390.005 71.1165 389.203 70.4161 388.026 69.7665C386.848 69.0965 385.102 68.386 382.788 67.6349C380.149 66.762 377.682 65.7368 375.388 64.5593C373.115 63.3819 371.278 61.91 369.877 60.1439C368.496 58.3777 367.806 56.1954 367.806 53.5968C367.806 51.0998 368.527 48.9277 369.968 47.0803C371.41 45.2126 373.389 43.7712 375.906 42.7562C378.444 41.7208 381.326 41.2032 384.554 41.2032C387.802 41.2032 390.655 41.7817 393.111 42.9389C395.588 44.0757 397.516 45.6795 398.897 47.7502C400.277 49.8006 400.968 52.1859 400.968 54.9063H391.101C391.101 53.7085 390.848 52.6529 390.34 51.7393C389.853 50.8055 389.102 50.0746 388.087 49.5468C387.092 49.019 385.843 48.7551 384.341 48.7551C382.88 48.7551 381.651 48.9784 380.657 49.425C379.682 49.8513 378.941 50.4401 378.434 51.1912C377.946 51.9423 377.703 52.7645 377.703 53.6578C377.703 54.5916 378.028 55.4239 378.677 56.1548C379.347 56.8856 380.311 57.5555 381.57 58.1645C382.849 58.7533 384.392 59.3318 386.199 59.9003C389.366 60.895 392.045 62.0522 394.238 63.3717C396.43 64.671 398.095 66.224 399.232 68.0308C400.389 69.8172 400.968 71.9387 400.968 74.3951C400.968 77.0139 400.298 79.247 398.958 81.0944C397.618 82.9417 395.73 84.3526 393.294 85.3271C390.878 86.2812 388.026 86.7583 384.737 86.7583C382.504 86.7583 380.301 86.4741 378.129 85.9057C375.957 85.3169 373.988 84.4237 372.222 83.2259C370.476 82.0282 369.075 80.5056 368.019 78.6583C366.984 76.7906 366.466 74.5778 366.466 72.0199H376.393C376.393 73.3597 376.586 74.4966 376.972 75.4304C377.358 76.344 377.906 77.0849 378.616 77.6534C379.347 78.2218 380.23 78.6278 381.266 78.8714C382.301 79.115 383.458 79.2368 384.737 79.2368C386.219 79.2368 387.417 79.0338 388.33 78.6278C389.264 78.2015 389.954 77.6229 390.401 76.8921C390.848 76.1612 391.071 75.3492 391.071 74.456Z" fill="black"/>
<path d="M416.254 82.3429L424.872 53.201H435.103L421.857 91.0824C421.573 91.9147 421.187 92.8079 420.7 93.7621C420.233 94.7162 419.594 95.6298 418.782 96.5027C417.99 97.3756 416.975 98.0862 415.736 98.6343C414.498 99.1824 412.976 99.4565 411.169 99.4565C410.255 99.4565 409.545 99.4057 409.037 99.3042C408.55 99.223 407.9 99.0809 407.088 98.8779L407.058 91.9655C407.322 91.9655 407.555 91.9655 407.758 91.9655C407.982 91.9858 408.205 91.9959 408.428 91.9959C410.133 91.9959 411.362 91.7219 412.113 91.1737C412.864 90.6459 413.422 89.8339 413.788 88.7376L416.254 82.3429ZM413.361 53.201L420.182 76.6485L421.339 86.7278L414.914 87.0628L403.13 53.201H413.361Z" fill="black"/>
<path d="M447.497 60.2352V86.1493H437.966V53.201H446.919L447.497 60.2352ZM446.249 68.518L443.873 68.5789C443.873 65.2495 444.401 62.3973 445.457 60.0221C446.533 57.6469 448.025 55.8198 449.933 54.5408C451.862 53.2416 454.105 52.592 456.663 52.592C458.734 52.592 460.551 52.998 462.114 53.81C463.677 54.622 464.885 55.9517 465.737 57.7991C466.61 59.6465 467.047 62.1334 467.047 65.2597V86.1493H457.485V65.2292C457.485 63.8488 457.292 62.783 456.907 62.0319C456.521 61.2807 455.952 60.7529 455.201 60.4484C454.47 60.1439 453.577 59.9916 452.522 59.9916C451.405 59.9916 450.451 60.2149 449.659 60.6615C448.867 61.0879 448.218 61.6867 447.71 62.4582C447.203 63.2296 446.827 64.133 446.584 65.1683C446.36 66.2037 446.249 67.3202 446.249 68.518Z" fill="black"/>
<path d="M487.023 79.3586C488.038 79.3586 488.921 79.1658 489.672 78.7801C490.423 78.3943 491.002 77.8564 491.408 77.1661C491.834 76.4556 492.047 75.603 492.047 74.6082H501C501 77.0037 500.381 79.115 499.142 80.9421C497.924 82.7692 496.28 84.2004 494.209 85.2357C492.139 86.2508 489.804 86.7583 487.206 86.7583C483.795 86.7583 480.953 86.0275 478.679 84.5658C476.426 83.0838 474.731 81.0842 473.594 78.5669C472.457 76.0496 471.889 73.2176 471.889 70.071V69.2793C471.889 66.1326 472.447 63.3108 473.563 60.8138C474.7 58.2965 476.406 56.2969 478.679 54.8149C480.953 53.3329 483.785 52.592 487.175 52.592C489.875 52.592 492.261 53.1096 494.331 54.145C496.422 55.1803 498.056 56.6724 499.234 58.6213C500.411 60.5499 501 62.8743 501 65.5947H492.047C492.047 64.539 491.855 63.595 491.469 62.7627C491.103 61.91 490.535 61.2401 489.764 60.7529C489.012 60.2454 488.079 59.9916 486.962 59.9916C485.419 59.9916 484.242 60.4281 483.43 61.301C482.638 62.1537 482.1 63.2905 481.816 64.7116C481.552 66.1326 481.42 67.6552 481.42 69.2793V70.071C481.42 71.756 481.552 73.2988 481.816 74.6996C482.1 76.1003 482.638 77.227 483.43 78.0797C484.242 78.9323 485.439 79.3586 487.023 79.3586Z" fill="black"/>
</svg>
